<?xml version="1.0" encoding="utf-8"?>
<!-- Generator: Adobe Illustrator 16.0.3, SVG Export Plug-In . SVG Version: 6.00 Build 0)  -->
<!DOCTYPE svg PUBLIC "-//W3C//DTD SVG 1.1//EN" "http://www.w3.org/Graphics/SVG/1.1/DTD/svg11.dtd">
<svg version="1.1" id="OBJECTS" xmlns="http://www.w3.org/2000/svg" xmlns:xlink="http://www.w3.org/1999/xlink" x="0px" y="0px"
	 width="429.5px" height="218.749px" viewBox="0 0 429.5 218.749" enable-background="new 0 0 429.5 218.749" xml:space="preserve">
<g opacity="0.35">
	<path fill="#FFFFFF" stroke="#FFFFFF" stroke-width="2" stroke-miterlimit="10" d="M320.125,218.749
		c-60.308,0-109.373-49.066-109.373-109.375S259.818,0,320.125,0C380.436,0,429.5,49.065,429.5,109.374
		S380.436,218.749,320.125,218.749z M320.125,2.841c-58.742,0-106.532,47.791-106.532,106.533s47.79,106.534,106.532,106.534
		S426.66,168.116,426.66,109.374S378.868,2.841,320.125,2.841z"/>
</g>
	<circle opacity="0.25" cx="320.126" cy="109.374" r="93.357"/>
	<circle fill="#FFFFFF" cx="320.127" cy="109.374" r="73.137"/>
	<polygon opacity="0.35" points="333.251,35.113 305.585,184.279 15.503,206.397 48.752,35.113 "/>
	<linearGradient id="SVGID_1_" gradientUnits="userSpaceOnUse" x1="0" y1="109.6963" x2="333.2515" y2="109.6963">
	<stop offset="0.0185" style="stop-color:#F2513D"/>
		<stop offset="0.3212" style="stop-color:#E2383F"/>
		<stop offset="0.881" style="stop-color:#C00042"/>
</linearGradient>
	<polygon fill="url(#SVGID_1_)" points="305.585,184.279 0,184.279 27.668,35.113 333.251,35.113 "/>
	<g>
	<g opacity="0.53">
		<path fill="#B70F50" d="M68.646,104.302c-3.125-1.514-5.541-3.633-7.246-6.355c-1.707-2.721-2.559-5.846-2.559-9.373
			c0-4.677,1.083-8.836,3.249-12.479c2.166-3.643,5.175-6.488,9.028-8.54c3.853-2.05,8.232-3.077,13.14-3.077
			c3.872,0,7.304,0.701,10.294,2.1c2.99,1.4,5.213,3.384,6.671,5.952l-9.776,7.647c-1.802-3.143-4.485-4.715-8.051-4.715
			c-2.109,0-3.988,0.518-5.636,1.553c-1.649,1.035-2.933,2.482-3.853,4.342c-0.92,1.859-1.38,3.978-1.38,6.354
			c0,2.378,0.756,4.284,2.271,5.722c1.514,1.438,3.517,2.156,6.009,2.156c3.412,0,6.402-1.553,8.971-4.658l7.993,7.648
			c-2.339,2.876-4.994,4.928-7.964,6.154c-2.972,1.227-6.412,1.84-10.323,1.84C75.383,106.573,71.77,105.815,68.646,104.302z"/>
		<path fill="#B70F50" d="M128.136,98.638h-15.354l-4.025,7.016H94.437l25.648-40.255h13.341l9.546,40.255h-13.514L128.136,98.638z
			 M126.238,88.86l-1.955-10.293l-5.923,10.293H126.238z"/>
		<path fill="#B70F50" d="M192.888,65.398l-8.051,40.255h-11.156l-11.559-18.748l-3.738,18.748h-13.226l8.051-40.255h11.156
			l11.559,18.747l3.738-18.747H192.888z"/>
		<path fill="#B70F50" d="M199.443,65.398h13.571l-5.923,29.73h18.172l-2.128,10.524h-31.743L199.443,65.398z"/>
		<path fill="#B70F50" d="M234.923,65.398h13.571l-8.051,40.255h-13.571L234.923,65.398z"/>
	</g>
		<g>
		<g>
			<path fill="#FFFFFF" d="M61.646,100.302c-3.125-1.514-5.541-3.633-7.246-6.355c-1.707-2.721-2.559-5.846-2.559-9.373
				c0-4.677,1.083-8.836,3.249-12.479c2.166-3.643,5.175-6.488,9.028-8.54c3.853-2.05,8.232-3.077,13.14-3.077
				c3.872,0,7.304,0.701,10.294,2.1c2.99,1.4,5.213,3.384,6.671,5.952l-9.776,7.647c-1.802-3.143-4.485-4.715-8.051-4.715
				c-2.109,0-3.988,0.518-5.636,1.553c-1.649,1.035-2.933,2.482-3.853,4.342c-0.92,1.859-1.38,3.978-1.38,6.354
				c0,2.378,0.756,4.284,2.271,5.722c1.514,1.438,3.517,2.156,6.009,2.156c3.412,0,6.402-1.553,8.971-4.658l7.993,7.648
				c-2.339,2.876-4.994,4.928-7.964,6.154c-2.972,1.227-6.412,1.84-10.323,1.84C68.383,102.573,64.77,101.815,61.646,100.302z"/>
			<path fill="#FFFFFF" d="M121.136,94.638h-15.354l-4.025,7.016H87.437l25.648-40.255h13.341l9.546,40.255h-13.514L121.136,94.638z
				 M119.238,84.86l-1.955-10.293l-5.923,10.293H119.238z"/>
			<path fill="#FFFFFF" d="M185.888,61.398l-8.051,40.255h-11.156l-11.559-18.748l-3.738,18.748h-13.226l8.051-40.255h11.156
				l11.559,18.747l3.738-18.747H185.888z"/>
			<path fill="#FFFFFF" d="M192.443,61.398h13.571l-5.923,29.73h18.172l-2.128,10.524h-31.743L192.443,61.398z"/>
			<path fill="#FFFFFF" d="M227.923,61.398h13.571l-8.051,40.255h-13.571L227.923,61.398z"/>
		</g>
	</g>
</g>
	<polygon points="308.919,165.279 24.003,165.279 34.513,111.5 319.427,111.5 "/>
	<g>
	<path fill="#FFFFFF" d="M76.768,143.716l-2.221,11.281H64.066l2.265-11.414l-7.772-19.675h10.526l4.219,10.748l8.661-10.748H92.49
		L76.768,143.716z"/>
		<path fill="#FFFFFF" d="M108.256,149.579H96.398l-3.109,5.418H82.23l19.808-31.089h10.304l7.373,31.089h-10.437L108.256,149.579z
		 M106.791,142.028l-1.51-7.949l-4.575,7.949H106.791z"/>
		<path fill="#FFFFFF" d="M140.1,143.716l-2.221,11.281h-10.481l2.265-11.414l-7.772-19.675h10.526l4.219,10.748l8.661-10.748h10.526
		L140.1,143.716z"/>
		<path fill="#FFFFFF" d="M157.154,123.908h10.481l-6.218,31.089h-10.481L157.154,123.908z"/>
		<path fill="#FFFFFF" d="M203.342,123.908l-6.217,31.089h-8.616l-8.927-14.479l-2.887,14.479H166.48l6.218-31.089h8.616
		l8.927,14.479l2.887-14.479H203.342z"/>
</g>
	<g>
	<circle fill="#FFFFFF" cx="322.252" cy="111.5" r="53.054"/>
		<circle cx="322.251" cy="111.455" r="42.756"/>
		<linearGradient id="SVGID_2_" gradientUnits="userSpaceOnUse" x1="322.2515" y1="9.9463" x2="322.2515" y2="106.9461">
		<stop offset="0.0556" style="stop-color:#FFFFFF"/>
			<stop offset="1" style="stop-color:#FFFFFF;stop-opacity:0"/>
	</linearGradient>
		<circle fill="url(#SVGID_2_)" cx="322.251" cy="111.455" r="36"/>
		<path fill="#FFFFFF" d="M314.232,90.219l32.975,19.674c0.836,0.498,0.59,1.83-0.43,2.328l-40.256,19.674
		c-0.967,0.473-1.916-0.166-1.73-1.166l7.279-39.344C312.253,90.385,313.439,89.746,314.232,90.219z"/>
</g>
</svg>
